<svg xmlns="http://www.w3.org/2000/svg" viewBox="0 0 24 24" fill="none" stroke="#B5EAD7" stroke-width="2" stroke-linecap="round" stroke-linejoin="round">
    <path d="M9.5 2C7.5 2 6 3.5 6 5.5c0 1.7 1.2 3.1 2.8 3.4C9.3 11.5 11.5 13 14 13v-2c-1.7 0-3-1.3-3-3s1.3-3 3-3h3V2H9.5z"/>
    <path d="M14.5 22c2 0 3.5-1.5 3.5-3.5 0-1.7-1.2-3.1-2.8-3.4C14.7 12.5 12.5 11 10 11v2c1.7 0 3 1.3 3 3s-1.3 3-3 3H7v3h7.5z"/>
    <path d="M18 9.5c1.7 0 3-1.3 3-3S19.7 3.5 18 3.5H17"/>
    <path d="M6 14.5c-1.7 0-3 1.3-3 3s1.3 3 3 3h1"/>
</svg>
